#!OML:ASF H:\ManfredObstacles\Project 1\Capture day 2\Session 1\male.ASF
:FULLY-SPECIFIED
:DEGREES
249
root 0.189161 15.7002 21.1671 -169.436 -4.26588 173.289
lowerback -2.39158 -3.01043 -9.98624
upperback 0.970559 -3.73763 -0.278419
thorax 2.97899 -2.06687 5.09192
lowerneck -34.7923 0.286676 0.802692
upperneck 33.0777 0.302256 0.963396
head 18.215 0.64133 0.478259
rclavicle -1.80521e-014 -4.96962e-017
rhumerus -51.3292 -32.9334 -55.1101
rradius 18.472
rwrist 49.1225
rhand -0.587246 -6.63525
rfingers 7.12502
rthumb 25.0278 -35.0156
lclavicle -1.80521e-014 -4.96962e-017
lhumerus -19.8466 -4.26336 93.9292
lradius 31.9288
lwrist -34.3075
lhand 4.26412 7.11869
lfingers 7.12502
lthumb 29.6678 34.7656
rfemur -44.6212 5.10351 9.63252
rtibia 25.6495
rfoot -8.86827 -28.5037
rtoes -23.4268
lfemur 13.1514 -9.74669 -29.3205
ltibia -3.18055e-015
lfoot -0.669689 12.6675
ltoes -12.0157
250
root 0.20952 15.6898 21.0251 -169.396 -4.46753 173.33
lowerback -2.49994 -3.12251 -9.8482
upperback 0.959444 -3.87846 -0.282652
thorax 3.04162 -2.13613 4.9946
lowerneck -34.9416 0.166265 0.505795
upperneck 33.2671 0.215599 1.18502
head 18.3524 0.609423 0.616358
rclavicle 2.045e-014 2.92213e-014
rhumerus -51.8774 -33.4168 -54.3962
rradius 18.2868
rwrist 50.0735
rhand -0.577615 -6.52414
rfingers 7.12502
rthumb 25.037 -34.9032
lclavicle 2.045e-014 2.92213e-014
lhumerus -19.6565 -4.5492 94.0015
lradius 32.1107
lwrist -34.0358
lhand 4.30481 7.02981
lfingers 7.12502
lthumb 29.7067 34.6698
rfemur -44.2922 4.80248 10.0626
rtibia 25.6856
rfoot -8.6903 -28.6062
rtoes -23.3076
lfemur 13.6522 -9.87315 -29.1802
ltibia 3.49861e-014
lfoot -0.250174 12.2532
ltoes -13.1316
251
root 0.229676 15.679 20.8777 -169.394 -4.75073 173.17
lowerback -2.52326 -3.22693 -9.95607
upperback 0.949731 -4.01341 -0.311188
thorax 3.07212 -2.20683 5.01313
lowerneck -34.9325 0.284929 0.763046
upperneck 33.2916 0.32971 0.985998
head 18.3638 0.657116 0.508172
rclavicle -2.5519e-014 -1.92324e-014
rhumerus -52.3097 -33.3987 -54.1352
rradius 18.3187
rwrist 50.0439
rhand -0.378694 -6.52083
rfingers 7.12502
rthumb 25.2276 -34.8732
lclavicle -2.5519e-014 -1.92324e-014
lhumerus -19.6197 -4.90443 94.206
lradius 32.5811
lwrist -33.3723
lhand 4.5785 7.30502
lfingers 7.12502
lthumb 29.9679 34.8981
rfemur -43.8092 4.41732 10.2837
rtibia 25.7866
rfoot -8.82658 -28.6061
rtoes -22.4261
lfemur 14.2253 -10.1047 -29.2549
ltibia -4.77083e-014
lfoot -0.0690762 11.9336
ltoes -13.5268
252
root 0.251964 15.6619 20.7289 -169.387 -4.94495 173.08
lowerback -2.63845 -3.3405 -9.99983
upperback 0.995521 -4.14797 -0.31362
thorax 3.21048 -2.28255 5.01543
lowerneck -35.0763 0.269153 0.645694
upperneck 33.3648 0.354292 1.03037
head 18.4365 0.657649 0.556952
rclavicle 3.68497e-014 7.30534e-015
rhumerus -52.8461 -34.1924 -53.1103
rradius 18.0362
rwrist 51.1902
rhand -0.301794 -6.5834
rfingers 7.12502
rthumb 25.3013 -34.9254
lclavicle 3.68497e-014 7.30534e-015
lhumerus -19.4166 -5.30823 94.328
lradius 32.779
lwrist -33.1214
lhand 4.40234 7.26519
lfingers 7.12502
lthumb 29.7998 34.8885
rfemur -43.3251 4.26224 10.5024
rtibia 25.9834
rfoot -8.88158 -28.4174
rtoes -22.5054
lfemur 14.775 -10.2422 -29.2468
ltibia 9.54166e-015
lfoot 0.432894 11.5266
ltoes -14.2746
253
root 0.275361 15.6471 20.5776 -169.381 -5.28357 172.967
lowerback -2.46294 -5.04255 -10.0387
upperback 0.632193 -6.44213 0.905974
thorax 3.25645 -3.41266 6.1415
lowerneck -36.1285 1.35201 -1.80331
upperneck 33.7673 3.39182 1.2119
head 18.8172 1.49696 1.8415
rclavicle 4.79568e-014 -6.75868e-015
rhumerus -49.1449 -29.4931 -54.9662
rradius 17.5719
rwrist 51.0055
rhand -0.161932 -6.59722
rfingers 7.12502
rthumb 25.4353 -34.9202
lclavicle 4.79568e-014 -6.75868e-015
lhumerus -19.6377 0.757982 94.5494
lradius 33.1648
lwrist -34.6446
lhand 4.22714 6.93697
lfingers 7.12502
lthumb 29.6325 34.5902
rfemur -42.795 4.12567 10.6486
rtibia 26.2942
rfoot -8.19699 -28.2573
rtoes -23.1964
lfemur 15.3453 -10.5234 -29.2444
ltibia 0
lfoot 0.820096 11.0691
ltoes -14.8688
